<svg width="57" height="43" viewBox="0 0 57 43" fill="none" xmlns="http://www.w3.org/2000/svg">
<rect x="0.15" y="-0.15" width="56.3" height="42.3" rx="12.15" transform="matrix(-1 0 0 1 56.5998 0.300781)" fill="url(#paint0_linear_97_714)" stroke="#4A4A4A" stroke-width="0.3"/>
<rect width="54" height="40" rx="11" transform="matrix(1 0 0 -1 1.2998 41.3008)" fill="url(#paint1_linear_97_714)"/>
<g filter="url(#filter0_ii_97_714)">
<path d="M37.2997 22.0908C37.1424 23.793 36.5036 25.4152 35.458 26.7676C34.4123 28.12 33.0032 29.1466 31.3954 29.7273C29.7876 30.3081 28.0477 30.4189 26.3792 30.0469C24.7107 29.6748 23.1827 28.8353 21.9739 27.6266C20.7652 26.4178 19.9256 24.8898 19.5536 23.2213C19.1816 21.5528 19.2924 19.8129 19.8732 18.2051C20.4539 16.5973 21.4805 15.1881 22.8329 14.1425C24.1853 13.0969 25.8075 12.4581 27.5097 12.3008C26.5131 13.649 26.0336 15.3102 26.1582 16.9822C26.2829 18.6542 27.0036 20.2258 28.1891 21.4114C29.3746 22.5969 30.9463 23.3176 32.6183 23.4422C34.2903 23.5669 35.9514 23.0874 37.2997 22.0908Z" stroke="#889295" stroke-width="2" stroke-linecap="square" stroke-linejoin="round"/>
</g>
<defs>
<filter id="filter0_ii_97_714" x="15.7998" y="8.80078" width="25" height="25" filterUnits="userSpaceOnUse" color-interpolation-filters="sRGB">
<feFlood flood-opacity="0" result="BackgroundImageFix"/>
<feBlend mode="normal" in="SourceGraphic" in2="BackgroundImageFix" result="shape"/>
<feColorMatrix in="SourceAlpha" type="matrix" values="0 0 0 0 0 0 0 0 0 0 0 0 0 0 0 0 0 0 127 0" result="hardAlpha"/>
<feOffset dx="-0.5" dy="-0.5"/>
<feGaussianBlur stdDeviation="0.5"/>
<feComposite in2="hardAlpha" operator="arithmetic" k2="-1" k3="1"/>
<feColorMatrix type="matrix" values="0 0 0 0 0.869024 0 0 0 0 0.869024 0 0 0 0 0.869024 0 0 0 0.25 0"/>
<feBlend mode="normal" in2="shape" result="effect1_innerShadow_97_714"/>
<feColorMatrix in="SourceAlpha" type="matrix" values="0 0 0 0 0 0 0 0 0 0 0 0 0 0 0 0 0 0 127 0" result="hardAlpha"/>
<feOffset dx="0.5" dy="0.5"/>
<feGaussianBlur stdDeviation="0.5"/>
<feComposite in2="hardAlpha" operator="arithmetic" k2="-1" k3="1"/>
<feColorMatrix type="matrix" values="0 0 0 0 0 0 0 0 0 0 0 0 0 0 0 0 0 0 0.25 0"/>
<feBlend mode="normal" in2="effect1_innerShadow_97_714" result="effect2_innerShadow_97_714"/>
</filter>
<linearGradient id="paint0_linear_97_714" x1="-25.9595" y1="-1.02024" x2="-25.9595" y2="43.0202" gradientUnits="userSpaceOnUse">
<stop stop-color="#E9F2F3"/>
<stop offset="0.762972" stop-color="#B4C4C7"/>
<stop offset="1" stop-color="#869294"/>
</linearGradient>
<linearGradient id="paint1_linear_97_714" x1="27" y1="0" x2="27" y2="40" gradientUnits="userSpaceOnUse">
<stop stop-color="#7C888A"/>
<stop offset="0.32217" stop-color="#AABABD"/>
<stop offset="0.504858" stop-color="#DFE8E9"/>
<stop offset="0.9999" stop-color="#93A1A3"/>
</linearGradient>
</defs>
</svg>
