<svg width="40" height="40" viewBox="0 0 40 40" fill="none" xmlns="http://www.w3.org/2000/svg">
<path d="M19.9998 28.3333C24.6022 28.3333 28.3332 24.6023 28.3332 20C28.3332 15.3976 24.6022 11.6666 19.9998 11.6666C15.3975 11.6666 11.6665 15.3976 11.6665 20C11.6665 24.6023 15.3975 28.3333 19.9998 28.3333Z" fill="#909090"/>
<path d="M19.9998 0.666626V4.99996M19.9998 35V39.3333M6.03317 6.03329L9.39984 9.39996M30.5998 30.6L33.9665 33.9666M0.666504 20H4.99984M34.9998 20H39.3332M6.03317 33.9666L9.39984 30.6M30.5998 9.39996L33.9665 6.03329M28.3332 20C28.3332 24.6023 24.6022 28.3333 19.9998 28.3333C15.3975 28.3333 11.6665 24.6023 11.6665 20C11.6665 15.3976 15.3975 11.6666 19.9998 11.6666C24.6022 11.6666 28.3332 15.3976 28.3332 20Z" stroke="#909090" stroke-width="4" stroke-linejoin="round"/>
</svg>
