<svg width="40" height="40" viewBox="0 0 40 40" fill="none" xmlns="http://www.w3.org/2000/svg">
<path d="M15.5 22C15.5 22.5523 15.9477 23 16.5 23H24.5C25.0523 23 25.5 22.5523 25.5 22V20H33.2031C33.3966 21.2594 33.5 22.5396 33.5 23.8193C33.4998 31.4347 27.9916 36.1755 20.5 36.5C12.7002 36.5 7.50022 31.4347 7.5 23.8193C7.5 22.54 7.60346 21.2598 7.79688 20H15.5V22ZM20.5 29C19.3954 29 18.5 29.8954 18.5 31C18.5 32.1046 19.3954 33 20.5 33C21.6046 33 22.5 32.1046 22.5 31C22.5 29.8954 21.6046 29 20.5 29ZM14.5 27C13.3954 27 12.5 27.8954 12.5 29C12.5 30.1046 13.3954 31 14.5 31C15.6046 31 16.5 30.1046 16.5 29C16.5 27.8954 15.6046 27 14.5 27ZM26.5 27C25.3954 27 24.5 27.8954 24.5 29C24.5 30.1046 25.3954 31 26.5 31C27.6046 31 28.5 30.1046 28.5 29C28.5 27.8954 27.6046 27 26.5 27ZM20.5 3.50001C25.4062 3.5097 30.3118 9.29668 32.4229 16.5H25.5V15C25.5 14.4477 25.0523 14 24.5 14H16.5C15.9477 14 15.5 14.4477 15.5 15V16.5H8.57617C10.6866 9.28906 15.593 3.49032 20.5 3.50001Z" fill="#909090"/>
</svg>
